<svg width="122" height="38" viewBox="0 0 122 38" fill="none" xmlns="http://www.w3.org/2000/svg">
<path d="M16.9 37C9.724 37 6.136 33.5853 6.136 26.756V16.772H2.08C1.69867 16.772 1.36933 16.6507 1.092 16.408C0.849333 16.1653 0.728 15.8533 0.728 15.472V11.26C0.728 10.8787 0.849333 10.5667 1.092 10.324C1.36933 10.0813 1.69867 9.96 2.08 9.96H6.136V1.38C6.136 0.998664 6.25733 0.686665 6.5 0.444C6.77733 0.201332 7.08933 0.079998 7.436 0.079998H13.468C13.8493 0.079998 14.1613 0.201332 14.404 0.444C14.6467 0.686665 14.768 0.998664 14.768 1.38V9.96H21.268C21.6493 9.96 21.9613 10.0813 22.204 10.324C22.4813 10.5667 22.62 10.8787 22.62 11.26V15.472C22.62 15.8533 22.4813 16.1653 22.204 16.408C21.9613 16.6507 21.6493 16.772 21.268 16.772H14.768V26.028C14.768 28.5933 15.756 29.876 17.732 29.876H21.736C22.1173 29.876 22.4293 29.9973 22.672 30.24C22.9147 30.4827 23.036 30.7947 23.036 31.176V35.7C23.036 36.0467 22.9147 36.3587 22.672 36.636C22.4293 36.8787 22.1173 37 21.736 37H16.9ZM41.1734 37.52C36.8748 37.52 33.5641 36.4973 31.2414 34.452C28.9188 32.4067 27.6534 29.5293 27.4454 25.82C27.4108 25.3693 27.3934 24.5893 27.3934 23.48C27.3934 22.3707 27.4108 21.5907 27.4454 21.14C27.6534 17.4653 28.9534 14.6053 31.3454 12.56C33.7374 10.48 37.0134 9.44 41.1734 9.44C45.3681 9.44 48.6614 10.48 51.0534 12.56C53.4454 14.6053 54.7454 17.4653 54.9534 21.14C54.9881 21.5907 55.0054 22.3707 55.0054 23.48C55.0054 24.5893 54.9881 25.3693 54.9534 25.82C54.7454 29.5293 53.4801 32.4067 51.1574 34.452C48.8348 36.4973 45.5068 37.52 41.1734 37.52ZM41.1734 31.176C42.6988 31.176 43.8254 30.7253 44.5534 29.824C45.2814 28.888 45.6974 27.4667 45.8014 25.56C45.8361 25.2133 45.8534 24.52 45.8534 23.48C45.8534 22.44 45.8361 21.7467 45.8014 21.4C45.6974 19.528 45.2641 18.124 44.5014 17.188C43.7734 16.252 42.6641 15.784 41.1734 15.784C38.2961 15.784 36.7708 17.656 36.5974 21.4L36.5454 23.48L36.5974 25.56C36.6668 27.4667 37.0654 28.888 37.7934 29.824C38.5561 30.7253 39.6828 31.176 41.1734 31.176ZM71.2985 37.52C67.9012 37.52 65.2492 36.4627 63.3425 34.348C61.4705 32.1987 60.4478 29.1827 60.2745 25.3L60.2225 23.48L60.2745 21.608C60.4132 17.864 61.4358 14.9 63.3425 12.716C65.2838 10.532 67.9358 9.44 71.2985 9.44C74.4532 9.44 77.0012 10.4627 78.9425 12.508V1.38C78.9425 0.998664 79.0638 0.686665 79.3065 0.444C79.5492 0.201332 79.8612 0.079998 80.2425 0.079998H86.5865C86.9678 0.079998 87.2798 0.201332 87.5225 0.444C87.7652 0.686665 87.8865 0.998664 87.8865 1.38V35.7C87.8865 36.0467 87.7652 36.3587 87.5225 36.636C87.2798 36.8787 86.9678 37 86.5865 37H80.7105C80.3638 37 80.0518 36.8787 79.7745 36.636C79.5318 36.3587 79.4105 36.0467 79.4105 35.7V34.036C77.5038 36.3587 74.7998 37.52 71.2985 37.52ZM74.1585 30.552C75.7185 30.552 76.8798 30.0667 77.6425 29.096C78.4052 28.0907 78.8385 26.808 78.9425 25.248C78.9772 24.7973 78.9945 24.1387 78.9945 23.272C78.9945 22.44 78.9772 21.7987 78.9425 21.348C78.8732 19.9267 78.4398 18.748 77.6425 17.812C76.8452 16.876 75.6838 16.408 74.1585 16.408C72.5292 16.408 71.3505 16.8933 70.6225 17.864C69.9292 18.8347 69.5305 20.1693 69.4265 21.868C69.3918 22.2147 69.3745 22.752 69.3745 23.48C69.3745 24.208 69.3918 24.7453 69.4265 25.092C69.5305 26.7907 69.9292 28.1253 70.6225 29.096C71.3505 30.0667 72.5292 30.552 74.1585 30.552ZM107.847 37.52C103.549 37.52 100.238 36.4973 97.9152 34.452C95.5925 32.4067 94.3272 29.5293 94.1192 25.82C94.0845 25.3693 94.0672 24.5893 94.0672 23.48C94.0672 22.3707 94.0845 21.5907 94.1192 21.14C94.3272 17.4653 95.6272 14.6053 98.0192 12.56C100.411 10.48 103.687 9.44 107.847 9.44C112.042 9.44 115.335 10.48 117.727 12.56C120.119 14.6053 121.419 17.4653 121.627 21.14C121.662 21.5907 121.679 22.3707 121.679 23.48C121.679 24.5893 121.662 25.3693 121.627 25.82C121.419 29.5293 120.154 32.4067 117.831 34.452C115.509 36.4973 112.181 37.52 107.847 37.52ZM107.847 31.176C109.373 31.176 110.499 30.7253 111.227 29.824C111.955 28.888 112.371 27.4667 112.475 25.56C112.51 25.2133 112.527 24.52 112.527 23.48C112.527 22.44 112.51 21.7467 112.475 21.4C112.371 19.528 111.938 18.124 111.175 17.188C110.447 16.252 109.338 15.784 107.847 15.784C104.97 15.784 103.445 17.656 103.271 21.4L103.219 23.48L103.271 25.56C103.341 27.4667 103.739 28.888 104.467 29.824C105.23 30.7253 106.357 31.176 107.847 31.176Z" fill="#69665C"/>
</svg>
